# xmcd
#
# Track frame offsets:
#	150
#	25441
#	42846
#	62128
#	77541
#	95070
#	111145
#	126492
#	142141
#	157788
#	171728
#	185955
#	196509
#
# Disc length: 3206 seconds
#
# Revision: 1
# Processed by: cddbd v1.5.2PL0 Copyright (c) Steve Scherf et al.
# Submitted via: audiograbber 1.83.01
#
DISCID=bc0c840d
DTITLE=Willie Nelson - Moment of Forever
DYEAR=2008
DGENRE=Country
TTITLE0=Over You Again
TTITLE1=Moment of Forever
TTITLE2=The Bob Song
TTITLE3=Louisiana
TTITLE4=Gravedigger
TTITLE5=Keep Me From Blowing Away
TTITLE6=Takin' On Water
TTITLE7=Always Now
TTITLE8=I'm Alive
TTITLE9=When I Was Young and Grandma Wasn't Old
TTITLE10=Worry B Gone
TTITLE11=You Don't Think I'm Funny Anymore
TTITLE12=Gotta Serve Somebody
EXTD=
EXTT0=
EXTT1=
EXTT2=
EXTT3=
EXTT4=
EXTT5=
EXTT6=
EXTT7=
EXTT8=
EXTT9=
EXTT10=
EXTT11=
EXTT12=
PLAYORDER=
